<?xml version="1.0" encoding="UTF-8" standalone="no"?><svg xmlns="http://www.w3.org/2000/svg" xmlns:xlink="http://www.w3.org/1999/xlink" contentScriptType="application/ecmascript" contentStyleType="text/css" height="910px" preserveAspectRatio="none" style="width:471px;height:910px;background:#FFFFFF;" version="1.1" viewBox="0 0 471 910" width="471px" zoomAndPan="magnify"><defs><filter height="300%" id="fznkhlnkyiqas" width="300%" x="-1" y="-1"><feGaussianBlur result="blurOut" stdDeviation="2.0"/><feColorMatrix in="blurOut" result="blurOut2" type="matrix" values="0 0 0 0 0 0 0 0 0 0 0 0 0 0 0 0 0 0 .4 0"/><feOffset dx="4.0" dy="4.0" in="blurOut2" result="blurOut3"/><feBlend in="SourceGraphic" in2="blurOut3" mode="normal"/></filter></defs><g><rect fill="#FFFFFF" filter="url(#fznkhlnkyiqas)" height="807.7891" style="stroke:#A80036;stroke-width:1.0;" width="10" x="139" y="50.2969"/><rect fill="#FFFFFF" filter="url(#fznkhlnkyiqas)" height="190.6641" style="stroke:#A80036;stroke-width:1.0;" width="10" x="263" y="184.8281"/><rect fill="#FFFFFF" filter="url(#fznkhlnkyiqas)" height="190.6641" style="stroke:#A80036;stroke-width:1.0;" width="10" x="263" y="453.7578"/><rect fill="#FFFFFF" filter="url(#fznkhlnkyiqas)" height="135.3984" style="stroke:#A80036;stroke-width:1.0;" width="10" x="370" y="722.6875"/><line style="stroke:#A80036;stroke-width:1.0;stroke-dasharray:5.0,5.0;" x1="144" x2="144" y1="40.2969" y2="867.0859"/><line style="stroke:#A80036;stroke-width:1.0;stroke-dasharray:5.0,5.0;" x1="267.5" x2="267.5" y1="40.2969" y2="867.0859"/><line style="stroke:#A80036;stroke-width:1.0;stroke-dasharray:5.0,5.0;" x1="375" x2="375" y1="40.2969" y2="867.0859"/><rect fill="#FEFECE" filter="url(#fznkhlnkyiqas)" height="30.2969" style="stroke:#A80036;stroke-width:1.5;" width="42" x="121" y="5"/><text fill="#000000" font-family="sans-serif" font-size="14" lengthAdjust="spacing" textLength="28" x="128" y="24.9951">应用</text><rect fill="#FEFECE" filter="url(#fznkhlnkyiqas)" height="30.2969" style="stroke:#A80036;stroke-width:1.5;" width="42" x="121" y="866.0859"/><text fill="#000000" font-family="sans-serif" font-size="14" lengthAdjust="spacing" textLength="28" x="128" y="886.0811">应用</text><rect fill="#FEFECE" filter="url(#fznkhlnkyiqas)" height="30.2969" style="stroke:#A80036;stroke-width:1.5;" width="51" x="240.5" y="5"/><text fill="#000000" font-family="sans-serif" font-size="14" lengthAdjust="spacing" textLength="37" x="247.5" y="24.9951">页面A</text><rect fill="#FEFECE" filter="url(#fznkhlnkyiqas)" height="30.2969" style="stroke:#A80036;stroke-width:1.5;" width="51" x="240.5" y="866.0859"/><text fill="#000000" font-family="sans-serif" font-size="14" lengthAdjust="spacing" textLength="37" x="247.5" y="886.0811">页面A</text><rect fill="#FEFECE" filter="url(#fznkhlnkyiqas)" height="30.2969" style="stroke:#A80036;stroke-width:1.5;" width="52" x="347" y="5"/><text fill="#000000" font-family="sans-serif" font-size="14" lengthAdjust="spacing" textLength="38" x="354" y="24.9951">页面B</text><rect fill="#FEFECE" filter="url(#fznkhlnkyiqas)" height="30.2969" style="stroke:#A80036;stroke-width:1.5;" width="52" x="347" y="866.0859"/><text fill="#000000" font-family="sans-serif" font-size="14" lengthAdjust="spacing" textLength="38" x="354" y="886.0811">页面B</text><rect fill="#FFFFFF" filter="url(#fznkhlnkyiqas)" height="807.7891" style="stroke:#A80036;stroke-width:1.0;" width="10" x="139" y="50.2969"/><rect fill="#FFFFFF" filter="url(#fznkhlnkyiqas)" height="190.6641" style="stroke:#A80036;stroke-width:1.0;" width="10" x="263" y="184.8281"/><rect fill="#FFFFFF" filter="url(#fznkhlnkyiqas)" height="190.6641" style="stroke:#A80036;stroke-width:1.0;" width="10" x="263" y="453.7578"/><rect fill="#FFFFFF" filter="url(#fznkhlnkyiqas)" height="135.3984" style="stroke:#A80036;stroke-width:1.0;" width="10" x="370" y="722.6875"/><polygon fill="#A80036" points="127,67.4297,137,71.4297,127,75.4297,131,71.4297" style="stroke:#A80036;stroke-width:1.0;"/><line style="stroke:#A80036;stroke-width:1.0;" x1="0" x2="133" y1="71.4297" y2="71.4297"/><text fill="#000000" font-family="sans-serif" font-size="13" font-weight="bold" lengthAdjust="spacing" textLength="9" x="7" y="66.3638">1</text><text fill="#000000" font-family="sans-serif" font-size="13" lengthAdjust="spacing" textLength="78" x="20" y="66.3638">冷启动小程序</text><line style="stroke:#A80036;stroke-width:1.0;" x1="149" x2="191" y1="100.5625" y2="100.5625"/><line style="stroke:#A80036;stroke-width:1.0;" x1="191" x2="191" y1="100.5625" y2="113.5625"/><line style="stroke:#A80036;stroke-width:1.0;" x1="150" x2="191" y1="113.5625" y2="113.5625"/><polygon fill="#A80036" points="160,109.5625,150,113.5625,160,117.5625,156,113.5625" style="stroke:#A80036;stroke-width:1.0;"/><text fill="#000000" font-family="sans-serif" font-size="13" font-weight="bold" lengthAdjust="spacing" textLength="9" x="156" y="95.4966">2</text><text fill="#000000" font-family="sans-serif" font-size="13" lengthAdjust="spacing" textLength="62" x="169" y="95.4966">onLaunch</text><line style="stroke:#A80036;stroke-width:1.0;" x1="149" x2="191" y1="142.6953" y2="142.6953"/><line style="stroke:#A80036;stroke-width:1.0;" x1="191" x2="191" y1="142.6953" y2="155.6953"/><line style="stroke:#A80036;stroke-width:1.0;" x1="150" x2="191" y1="155.6953" y2="155.6953"/><polygon fill="#A80036" points="160,151.6953,150,155.6953,160,159.6953,156,155.6953" style="stroke:#A80036;stroke-width:1.0;"/><text fill="#000000" font-family="sans-serif" font-size="13" font-weight="bold" lengthAdjust="spacing" textLength="9" x="156" y="137.6294">3</text><text fill="#000000" font-family="sans-serif" font-size="13" lengthAdjust="spacing" textLength="50" x="169" y="137.6294">onShow</text><polygon fill="#A80036" points="251,180.8281,261,184.8281,251,188.8281,255,184.8281" style="stroke:#A80036;stroke-width:1.0;"/><line style="stroke:#A80036;stroke-width:1.0;" x1="149" x2="257" y1="184.8281" y2="184.8281"/><text fill="#000000" font-family="sans-serif" font-size="13" font-weight="bold" lengthAdjust="spacing" textLength="9" x="156" y="179.7622">4</text><text fill="#000000" font-family="sans-serif" font-size="13" lengthAdjust="spacing" textLength="78" x="169" y="179.7622">打开启动页面</text><line style="stroke:#A80036;stroke-width:1.0;" x1="273" x2="315" y1="213.9609" y2="213.9609"/><line style="stroke:#A80036;stroke-width:1.0;" x1="315" x2="315" y1="213.9609" y2="226.9609"/><line style="stroke:#A80036;stroke-width:1.0;" x1="274" x2="315" y1="226.9609" y2="226.9609"/><polygon fill="#A80036" points="284,222.9609,274,226.9609,284,230.9609,280,226.9609" style="stroke:#A80036;stroke-width:1.0;"/><text fill="#000000" font-family="sans-serif" font-size="13" font-weight="bold" lengthAdjust="spacing" textLength="9" x="280" y="208.895">5</text><text fill="#000000" font-family="sans-serif" font-size="13" lengthAdjust="spacing" textLength="47" x="293" y="208.895">onLoad</text><line style="stroke:#A80036;stroke-width:1.0;" x1="273" x2="315" y1="256.0938" y2="256.0938"/><line style="stroke:#A80036;stroke-width:1.0;" x1="315" x2="315" y1="256.0938" y2="269.0938"/><line style="stroke:#A80036;stroke-width:1.0;" x1="274" x2="315" y1="269.0938" y2="269.0938"/><polygon fill="#A80036" points="284,265.0938,274,269.0938,284,273.0938,280,269.0938" style="stroke:#A80036;stroke-width:1.0;"/><text fill="#000000" font-family="sans-serif" font-size="13" font-weight="bold" lengthAdjust="spacing" textLength="9" x="280" y="251.0278">6</text><text fill="#000000" font-family="sans-serif" font-size="13" lengthAdjust="spacing" textLength="50" x="293" y="251.0278">onShow</text><line style="stroke:#A80036;stroke-width:1.0;" x1="273" x2="315" y1="298.2266" y2="298.2266"/><line style="stroke:#A80036;stroke-width:1.0;" x1="315" x2="315" y1="298.2266" y2="311.2266"/><line style="stroke:#A80036;stroke-width:1.0;" x1="274" x2="315" y1="311.2266" y2="311.2266"/><polygon fill="#A80036" points="284,307.2266,274,311.2266,284,315.2266,280,311.2266" style="stroke:#A80036;stroke-width:1.0;"/><text fill="#000000" font-family="sans-serif" font-size="13" font-weight="bold" lengthAdjust="spacing" textLength="9" x="280" y="293.1606">7</text><text fill="#000000" font-family="sans-serif" font-size="13" lengthAdjust="spacing" textLength="55" x="293" y="293.1606">onReady</text><polygon fill="#A80036" points="127,336.3594,137,340.3594,127,344.3594,131,340.3594" style="stroke:#A80036;stroke-width:1.0;"/><line style="stroke:#A80036;stroke-width:1.0;" x1="0" x2="133" y1="340.3594" y2="340.3594"/><text fill="#000000" font-family="sans-serif" font-size="13" font-weight="bold" lengthAdjust="spacing" textLength="9" x="7" y="335.2935">8</text><text fill="#000000" font-family="sans-serif" font-size="13" lengthAdjust="spacing" textLength="98" x="20" y="335.2935">reLaunch 页面A</text><line style="stroke:#A80036;stroke-width:1.0;" x1="273" x2="315" y1="374.4922" y2="374.4922"/><line style="stroke:#A80036;stroke-width:1.0;" x1="315" x2="315" y1="374.4922" y2="387.4922"/><line style="stroke:#A80036;stroke-width:1.0;" x1="268" x2="315" y1="387.4922" y2="387.4922"/><polygon fill="#A80036" points="278,383.4922,268,387.4922,278,391.4922,274,387.4922" style="stroke:#A80036;stroke-width:1.0;"/><text fill="#000000" font-family="sans-serif" font-size="13" font-weight="bold" lengthAdjust="spacing" textLength="9" x="280" y="369.4263">9</text><text fill="#000000" font-family="sans-serif" font-size="13" lengthAdjust="spacing" textLength="61" x="293" y="369.4263">onUnload</text><line style="stroke:#A80036;stroke-width:1.0;" x1="149" x2="191" y1="411.625" y2="411.625"/><line style="stroke:#A80036;stroke-width:1.0;" x1="191" x2="191" y1="411.625" y2="424.625"/><line style="stroke:#A80036;stroke-width:1.0;" x1="150" x2="191" y1="424.625" y2="424.625"/><polygon fill="#A80036" points="160,420.625,150,424.625,160,428.625,156,424.625" style="stroke:#A80036;stroke-width:1.0;"/><text fill="#000000" font-family="sans-serif" font-size="13" font-weight="bold" lengthAdjust="spacing" textLength="18" x="156" y="406.5591">10</text><text fill="#000000" font-family="sans-serif" font-size="13" lengthAdjust="spacing" textLength="78" x="178" y="406.5591">关闭所有页面</text><polygon fill="#A80036" points="251,449.7578,261,453.7578,251,457.7578,255,453.7578" style="stroke:#A80036;stroke-width:1.0;"/><line style="stroke:#A80036;stroke-width:1.0;" x1="149" x2="257" y1="453.7578" y2="453.7578"/><text fill="#000000" font-family="sans-serif" font-size="13" font-weight="bold" lengthAdjust="spacing" textLength="18" x="156" y="448.6919">11</text><text fill="#000000" font-family="sans-serif" font-size="13" lengthAdjust="spacing" textLength="61" x="178" y="448.6919">打开页面A</text><line style="stroke:#A80036;stroke-width:1.0;" x1="273" x2="315" y1="482.8906" y2="482.8906"/><line style="stroke:#A80036;stroke-width:1.0;" x1="315" x2="315" y1="482.8906" y2="495.8906"/><line style="stroke:#A80036;stroke-width:1.0;" x1="274" x2="315" y1="495.8906" y2="495.8906"/><polygon fill="#A80036" points="284,491.8906,274,495.8906,284,499.8906,280,495.8906" style="stroke:#A80036;stroke-width:1.0;"/><text fill="#000000" font-family="sans-serif" font-size="13" font-weight="bold" lengthAdjust="spacing" textLength="18" x="280" y="477.8247">12</text><text fill="#000000" font-family="sans-serif" font-size="13" lengthAdjust="spacing" textLength="47" x="302" y="477.8247">onLoad</text><line style="stroke:#A80036;stroke-width:1.0;" x1="273" x2="315" y1="525.0234" y2="525.0234"/><line style="stroke:#A80036;stroke-width:1.0;" x1="315" x2="315" y1="525.0234" y2="538.0234"/><line style="stroke:#A80036;stroke-width:1.0;" x1="274" x2="315" y1="538.0234" y2="538.0234"/><polygon fill="#A80036" points="284,534.0234,274,538.0234,284,542.0234,280,538.0234" style="stroke:#A80036;stroke-width:1.0;"/><text fill="#000000" font-family="sans-serif" font-size="13" font-weight="bold" lengthAdjust="spacing" textLength="18" x="280" y="519.9575">13</text><text fill="#000000" font-family="sans-serif" font-size="13" lengthAdjust="spacing" textLength="50" x="302" y="519.9575">onShow</text><line style="stroke:#A80036;stroke-width:1.0;" x1="273" x2="315" y1="567.1563" y2="567.1563"/><line style="stroke:#A80036;stroke-width:1.0;" x1="315" x2="315" y1="567.1563" y2="580.1563"/><line style="stroke:#A80036;stroke-width:1.0;" x1="274" x2="315" y1="580.1563" y2="580.1563"/><polygon fill="#A80036" points="284,576.1563,274,580.1563,284,584.1563,280,580.1563" style="stroke:#A80036;stroke-width:1.0;"/><text fill="#000000" font-family="sans-serif" font-size="13" font-weight="bold" lengthAdjust="spacing" textLength="18" x="280" y="562.0903">14</text><text fill="#000000" font-family="sans-serif" font-size="13" lengthAdjust="spacing" textLength="55" x="302" y="562.0903">onReady</text><polygon fill="#A80036" points="127,605.2891,137,609.2891,127,613.2891,131,609.2891" style="stroke:#A80036;stroke-width:1.0;"/><line style="stroke:#A80036;stroke-width:1.0;" x1="0" x2="133" y1="609.2891" y2="609.2891"/><text fill="#000000" font-family="sans-serif" font-size="13" font-weight="bold" lengthAdjust="spacing" textLength="18" x="7" y="604.2231">15</text><text fill="#000000" font-family="sans-serif" font-size="13" lengthAdjust="spacing" textLength="98" x="29" y="604.2231">reLaunch 页面B</text><line style="stroke:#A80036;stroke-width:1.0;" x1="273" x2="315" y1="643.4219" y2="643.4219"/><line style="stroke:#A80036;stroke-width:1.0;" x1="315" x2="315" y1="643.4219" y2="656.4219"/><line style="stroke:#A80036;stroke-width:1.0;" x1="268" x2="315" y1="656.4219" y2="656.4219"/><polygon fill="#A80036" points="278,652.4219,268,656.4219,278,660.4219,274,656.4219" style="stroke:#A80036;stroke-width:1.0;"/><text fill="#000000" font-family="sans-serif" font-size="13" font-weight="bold" lengthAdjust="spacing" textLength="18" x="280" y="638.356">16</text><text fill="#000000" font-family="sans-serif" font-size="13" lengthAdjust="spacing" textLength="61" x="302" y="638.356">onUnload</text><line style="stroke:#A80036;stroke-width:1.0;" x1="149" x2="191" y1="680.5547" y2="680.5547"/><line style="stroke:#A80036;stroke-width:1.0;" x1="191" x2="191" y1="680.5547" y2="693.5547"/><line style="stroke:#A80036;stroke-width:1.0;" x1="150" x2="191" y1="693.5547" y2="693.5547"/><polygon fill="#A80036" points="160,689.5547,150,693.5547,160,697.5547,156,693.5547" style="stroke:#A80036;stroke-width:1.0;"/><text fill="#000000" font-family="sans-serif" font-size="13" font-weight="bold" lengthAdjust="spacing" textLength="18" x="156" y="675.4888">17</text><text fill="#000000" font-family="sans-serif" font-size="13" lengthAdjust="spacing" textLength="78" x="178" y="675.4888">关闭所有页面</text><polygon fill="#A80036" points="358,718.6875,368,722.6875,358,726.6875,362,722.6875" style="stroke:#A80036;stroke-width:1.0;"/><line style="stroke:#A80036;stroke-width:1.0;" x1="149" x2="364" y1="722.6875" y2="722.6875"/><text fill="#000000" font-family="sans-serif" font-size="13" font-weight="bold" lengthAdjust="spacing" textLength="18" x="156" y="717.6216">18</text><text fill="#000000" font-family="sans-serif" font-size="13" lengthAdjust="spacing" textLength="61" x="178" y="717.6216">打开页面B</text><line style="stroke:#A80036;stroke-width:1.0;" x1="380" x2="422" y1="751.8203" y2="751.8203"/><line style="stroke:#A80036;stroke-width:1.0;" x1="422" x2="422" y1="751.8203" y2="764.8203"/><line style="stroke:#A80036;stroke-width:1.0;" x1="381" x2="422" y1="764.8203" y2="764.8203"/><polygon fill="#A80036" points="391,760.8203,381,764.8203,391,768.8203,387,764.8203" style="stroke:#A80036;stroke-width:1.0;"/><text fill="#000000" font-family="sans-serif" font-size="13" font-weight="bold" lengthAdjust="spacing" textLength="18" x="387" y="746.7544">19</text><text fill="#000000" font-family="sans-serif" font-size="13" lengthAdjust="spacing" textLength="47" x="409" y="746.7544">onLoad</text><line style="stroke:#A80036;stroke-width:1.0;" x1="380" x2="422" y1="793.9531" y2="793.9531"/><line style="stroke:#A80036;stroke-width:1.0;" x1="422" x2="422" y1="793.9531" y2="806.9531"/><line style="stroke:#A80036;stroke-width:1.0;" x1="381" x2="422" y1="806.9531" y2="806.9531"/><polygon fill="#A80036" points="391,802.9531,381,806.9531,391,810.9531,387,806.9531" style="stroke:#A80036;stroke-width:1.0;"/><text fill="#000000" font-family="sans-serif" font-size="13" font-weight="bold" lengthAdjust="spacing" textLength="18" x="387" y="788.8872">20</text><text fill="#000000" font-family="sans-serif" font-size="13" lengthAdjust="spacing" textLength="50" x="409" y="788.8872">onShow</text><line style="stroke:#A80036;stroke-width:1.0;" x1="380" x2="422" y1="836.0859" y2="836.0859"/><line style="stroke:#A80036;stroke-width:1.0;" x1="422" x2="422" y1="836.0859" y2="849.0859"/><line style="stroke:#A80036;stroke-width:1.0;" x1="381" x2="422" y1="849.0859" y2="849.0859"/><polygon fill="#A80036" points="391,845.0859,381,849.0859,391,853.0859,387,849.0859" style="stroke:#A80036;stroke-width:1.0;"/><text fill="#000000" font-family="sans-serif" font-size="13" font-weight="bold" lengthAdjust="spacing" textLength="18" x="387" y="831.02">21</text><text fill="#000000" font-family="sans-serif" font-size="13" lengthAdjust="spacing" textLength="55" x="409" y="831.02">onReady</text></g></svg>