<?xml version="1.0" encoding="UTF-8" standalone="no"?><svg xmlns="http://www.w3.org/2000/svg" xmlns:xlink="http://www.w3.org/1999/xlink" contentScriptType="application/ecmascript" contentStyleType="text/css" height="952px" preserveAspectRatio="none" style="width:482px;height:952px;background:#FFFFFF;" version="1.1" viewBox="0 0 482 952" width="482px" zoomAndPan="magnify"><defs><filter height="300%" id="fo8l2jsqqk6vk" width="300%" x="-1" y="-1"><feGaussianBlur result="blurOut" stdDeviation="2.0"/><feColorMatrix in="blurOut" result="blurOut2" type="matrix" values="0 0 0 0 0 0 0 0 0 0 0 0 0 0 0 0 0 0 .4 0"/><feOffset dx="4.0" dy="4.0" in="blurOut2" result="blurOut3"/><feBlend in="SourceGraphic" in2="blurOut3" mode="normal"/></filter></defs><g><rect fill="#FFFFFF" filter="url(#fo8l2jsqqk6vk)" height="849.9219" style="stroke:#A80036;stroke-width:1.0;" width="10" x="154" y="50.2969"/><rect fill="#FFFFFF" filter="url(#fo8l2jsqqk6vk)" height="572.9922" style="stroke:#A80036;stroke-width:1.0;" width="10" x="274" y="184.8281"/><rect fill="#FFFFFF" filter="url(#fo8l2jsqqk6vk)" height="140.3984" style="stroke:#A80036;stroke-width:1.0;" width="10" x="381" y="759.8203"/><line style="stroke:#A80036;stroke-width:1.0;stroke-dasharray:5.0,5.0;" x1="159" x2="159" y1="40.2969" y2="909.2188"/><line style="stroke:#A80036;stroke-width:1.0;stroke-dasharray:5.0,5.0;" x1="278.5" x2="278.5" y1="40.2969" y2="909.2188"/><line style="stroke:#A80036;stroke-width:1.0;stroke-dasharray:5.0,5.0;" x1="386" x2="386" y1="40.2969" y2="909.2188"/><rect fill="#FEFECE" filter="url(#fo8l2jsqqk6vk)" height="30.2969" style="stroke:#A80036;stroke-width:1.5;" width="42" x="136" y="5"/><text fill="#000000" font-family="sans-serif" font-size="14" lengthAdjust="spacing" textLength="28" x="143" y="24.9951">应用</text><rect fill="#FEFECE" filter="url(#fo8l2jsqqk6vk)" height="30.2969" style="stroke:#A80036;stroke-width:1.5;" width="42" x="136" y="908.2188"/><text fill="#000000" font-family="sans-serif" font-size="14" lengthAdjust="spacing" textLength="28" x="143" y="928.2139">应用</text><rect fill="#FEFECE" filter="url(#fo8l2jsqqk6vk)" height="30.2969" style="stroke:#A80036;stroke-width:1.5;" width="51" x="251.5" y="5"/><text fill="#000000" font-family="sans-serif" font-size="14" lengthAdjust="spacing" textLength="37" x="258.5" y="24.9951">页面A</text><rect fill="#FEFECE" filter="url(#fo8l2jsqqk6vk)" height="30.2969" style="stroke:#A80036;stroke-width:1.5;" width="51" x="251.5" y="908.2188"/><text fill="#000000" font-family="sans-serif" font-size="14" lengthAdjust="spacing" textLength="37" x="258.5" y="928.2139">页面A</text><rect fill="#FEFECE" filter="url(#fo8l2jsqqk6vk)" height="30.2969" style="stroke:#A80036;stroke-width:1.5;" width="52" x="358" y="5"/><text fill="#000000" font-family="sans-serif" font-size="14" lengthAdjust="spacing" textLength="38" x="365" y="24.9951">页面B</text><rect fill="#FEFECE" filter="url(#fo8l2jsqqk6vk)" height="30.2969" style="stroke:#A80036;stroke-width:1.5;" width="52" x="358" y="908.2188"/><text fill="#000000" font-family="sans-serif" font-size="14" lengthAdjust="spacing" textLength="38" x="365" y="928.2139">页面B</text><rect fill="#FFFFFF" filter="url(#fo8l2jsqqk6vk)" height="849.9219" style="stroke:#A80036;stroke-width:1.0;" width="10" x="154" y="50.2969"/><rect fill="#FFFFFF" filter="url(#fo8l2jsqqk6vk)" height="572.9922" style="stroke:#A80036;stroke-width:1.0;" width="10" x="274" y="184.8281"/><rect fill="#FFFFFF" filter="url(#fo8l2jsqqk6vk)" height="140.3984" style="stroke:#A80036;stroke-width:1.0;" width="10" x="381" y="759.8203"/><polygon fill="#A80036" points="142,67.4297,152,71.4297,142,75.4297,146,71.4297" style="stroke:#A80036;stroke-width:1.0;"/><line style="stroke:#A80036;stroke-width:1.0;" x1="0" x2="148" y1="71.4297" y2="71.4297"/><text fill="#000000" font-family="sans-serif" font-size="13" font-weight="bold" lengthAdjust="spacing" textLength="9" x="7" y="66.3638">1</text><text fill="#000000" font-family="sans-serif" font-size="13" lengthAdjust="spacing" textLength="78" x="20" y="66.3638">冷启动小程序</text><line style="stroke:#A80036;stroke-width:1.0;" x1="164" x2="206" y1="100.5625" y2="100.5625"/><line style="stroke:#A80036;stroke-width:1.0;" x1="206" x2="206" y1="100.5625" y2="113.5625"/><line style="stroke:#A80036;stroke-width:1.0;" x1="165" x2="206" y1="113.5625" y2="113.5625"/><polygon fill="#A80036" points="175,109.5625,165,113.5625,175,117.5625,171,113.5625" style="stroke:#A80036;stroke-width:1.0;"/><text fill="#000000" font-family="sans-serif" font-size="13" font-weight="bold" lengthAdjust="spacing" textLength="9" x="171" y="95.4966">2</text><text fill="#000000" font-family="sans-serif" font-size="13" lengthAdjust="spacing" textLength="62" x="184" y="95.4966">onLaunch</text><line style="stroke:#A80036;stroke-width:1.0;" x1="164" x2="206" y1="142.6953" y2="142.6953"/><line style="stroke:#A80036;stroke-width:1.0;" x1="206" x2="206" y1="142.6953" y2="155.6953"/><line style="stroke:#A80036;stroke-width:1.0;" x1="165" x2="206" y1="155.6953" y2="155.6953"/><polygon fill="#A80036" points="175,151.6953,165,155.6953,175,159.6953,171,155.6953" style="stroke:#A80036;stroke-width:1.0;"/><text fill="#000000" font-family="sans-serif" font-size="13" font-weight="bold" lengthAdjust="spacing" textLength="9" x="171" y="137.6294">3</text><text fill="#000000" font-family="sans-serif" font-size="13" lengthAdjust="spacing" textLength="50" x="184" y="137.6294">onShow</text><polygon fill="#A80036" points="262,180.8281,272,184.8281,262,188.8281,266,184.8281" style="stroke:#A80036;stroke-width:1.0;"/><line style="stroke:#A80036;stroke-width:1.0;" x1="164" x2="268" y1="184.8281" y2="184.8281"/><text fill="#000000" font-family="sans-serif" font-size="13" font-weight="bold" lengthAdjust="spacing" textLength="9" x="171" y="179.7622">4</text><text fill="#000000" font-family="sans-serif" font-size="13" lengthAdjust="spacing" textLength="78" x="184" y="179.7622">打开启动页面</text><line style="stroke:#A80036;stroke-width:1.0;" x1="284" x2="326" y1="213.9609" y2="213.9609"/><line style="stroke:#A80036;stroke-width:1.0;" x1="326" x2="326" y1="213.9609" y2="226.9609"/><line style="stroke:#A80036;stroke-width:1.0;" x1="285" x2="326" y1="226.9609" y2="226.9609"/><polygon fill="#A80036" points="295,222.9609,285,226.9609,295,230.9609,291,226.9609" style="stroke:#A80036;stroke-width:1.0;"/><text fill="#000000" font-family="sans-serif" font-size="13" font-weight="bold" lengthAdjust="spacing" textLength="9" x="291" y="208.895">5</text><text fill="#000000" font-family="sans-serif" font-size="13" lengthAdjust="spacing" textLength="47" x="304" y="208.895">onLoad</text><line style="stroke:#A80036;stroke-width:1.0;" x1="284" x2="326" y1="256.0938" y2="256.0938"/><line style="stroke:#A80036;stroke-width:1.0;" x1="326" x2="326" y1="256.0938" y2="269.0938"/><line style="stroke:#A80036;stroke-width:1.0;" x1="285" x2="326" y1="269.0938" y2="269.0938"/><polygon fill="#A80036" points="295,265.0938,285,269.0938,295,273.0938,291,269.0938" style="stroke:#A80036;stroke-width:1.0;"/><text fill="#000000" font-family="sans-serif" font-size="13" font-weight="bold" lengthAdjust="spacing" textLength="9" x="291" y="251.0278">6</text><text fill="#000000" font-family="sans-serif" font-size="13" lengthAdjust="spacing" textLength="50" x="304" y="251.0278">onShow</text><line style="stroke:#A80036;stroke-width:1.0;" x1="284" x2="326" y1="298.2266" y2="298.2266"/><line style="stroke:#A80036;stroke-width:1.0;" x1="326" x2="326" y1="298.2266" y2="311.2266"/><line style="stroke:#A80036;stroke-width:1.0;" x1="285" x2="326" y1="311.2266" y2="311.2266"/><polygon fill="#A80036" points="295,307.2266,285,311.2266,295,315.2266,291,311.2266" style="stroke:#A80036;stroke-width:1.0;"/><text fill="#000000" font-family="sans-serif" font-size="13" font-weight="bold" lengthAdjust="spacing" textLength="9" x="291" y="293.1606">7</text><text fill="#000000" font-family="sans-serif" font-size="13" lengthAdjust="spacing" textLength="55" x="304" y="293.1606">onReady</text><polygon fill="#A80036" points="142,336.3594,152,340.3594,142,344.3594,146,340.3594" style="stroke:#A80036;stroke-width:1.0;"/><line style="stroke:#A80036;stroke-width:1.0;" x1="0" x2="148" y1="340.3594" y2="340.3594"/><text fill="#000000" font-family="sans-serif" font-size="13" font-weight="bold" lengthAdjust="spacing" textLength="9" x="7" y="335.2935">8</text><text fill="#000000" font-family="sans-serif" font-size="13" lengthAdjust="spacing" textLength="52" x="20" y="335.2935">退到后台</text><line style="stroke:#A80036;stroke-width:1.0;" x1="284" x2="326" y1="369.4922" y2="369.4922"/><line style="stroke:#A80036;stroke-width:1.0;" x1="326" x2="326" y1="369.4922" y2="382.4922"/><line style="stroke:#A80036;stroke-width:1.0;" x1="285" x2="326" y1="382.4922" y2="382.4922"/><polygon fill="#A80036" points="295,378.4922,285,382.4922,295,386.4922,291,382.4922" style="stroke:#A80036;stroke-width:1.0;"/><text fill="#000000" font-family="sans-serif" font-size="13" font-weight="bold" lengthAdjust="spacing" textLength="9" x="291" y="364.4263">9</text><text fill="#000000" font-family="sans-serif" font-size="13" lengthAdjust="spacing" textLength="45" x="304" y="364.4263">onHide</text><line style="stroke:#A80036;stroke-width:1.0;" x1="164" x2="206" y1="411.625" y2="411.625"/><line style="stroke:#A80036;stroke-width:1.0;" x1="206" x2="206" y1="411.625" y2="424.625"/><line style="stroke:#A80036;stroke-width:1.0;" x1="165" x2="206" y1="424.625" y2="424.625"/><polygon fill="#A80036" points="175,420.625,165,424.625,175,428.625,171,424.625" style="stroke:#A80036;stroke-width:1.0;"/><text fill="#000000" font-family="sans-serif" font-size="13" font-weight="bold" lengthAdjust="spacing" textLength="18" x="171" y="406.5591">10</text><text fill="#000000" font-family="sans-serif" font-size="13" lengthAdjust="spacing" textLength="45" x="193" y="406.5591">onHide</text><polygon fill="#A80036" points="142,449.7578,152,453.7578,142,457.7578,146,453.7578" style="stroke:#A80036;stroke-width:1.0;"/><line style="stroke:#A80036;stroke-width:1.0;" x1="0" x2="148" y1="453.7578" y2="453.7578"/><text fill="#000000" font-family="sans-serif" font-size="13" font-weight="bold" lengthAdjust="spacing" textLength="18" x="7" y="448.6919">11</text><text fill="#000000" font-family="sans-serif" font-size="13" lengthAdjust="spacing" textLength="113" x="29" y="448.6919">回到小程序的页面A</text><line style="stroke:#A80036;stroke-width:1.0;" x1="164" x2="206" y1="482.8906" y2="482.8906"/><line style="stroke:#A80036;stroke-width:1.0;" x1="206" x2="206" y1="482.8906" y2="495.8906"/><line style="stroke:#A80036;stroke-width:1.0;" x1="165" x2="206" y1="495.8906" y2="495.8906"/><polygon fill="#A80036" points="175,491.8906,165,495.8906,175,499.8906,171,495.8906" style="stroke:#A80036;stroke-width:1.0;"/><text fill="#000000" font-family="sans-serif" font-size="13" font-weight="bold" lengthAdjust="spacing" textLength="18" x="171" y="477.8247">12</text><text fill="#000000" font-family="sans-serif" font-size="13" lengthAdjust="spacing" textLength="50" x="193" y="477.8247">onShow</text><line style="stroke:#A80036;stroke-width:1.0;" x1="284" x2="326" y1="525.0234" y2="525.0234"/><line style="stroke:#A80036;stroke-width:1.0;" x1="326" x2="326" y1="525.0234" y2="538.0234"/><line style="stroke:#A80036;stroke-width:1.0;" x1="285" x2="326" y1="538.0234" y2="538.0234"/><polygon fill="#A80036" points="295,534.0234,285,538.0234,295,542.0234,291,538.0234" style="stroke:#A80036;stroke-width:1.0;"/><text fill="#000000" font-family="sans-serif" font-size="13" font-weight="bold" lengthAdjust="spacing" textLength="18" x="291" y="519.9575">13</text><text fill="#000000" font-family="sans-serif" font-size="13" lengthAdjust="spacing" textLength="50" x="313" y="519.9575">onShow</text><polygon fill="#A80036" points="142,563.1563,152,567.1563,142,571.1563,146,567.1563" style="stroke:#A80036;stroke-width:1.0;"/><line style="stroke:#A80036;stroke-width:1.0;" x1="0" x2="148" y1="567.1563" y2="567.1563"/><text fill="#000000" font-family="sans-serif" font-size="13" font-weight="bold" lengthAdjust="spacing" textLength="18" x="7" y="562.0903">14</text><text fill="#000000" font-family="sans-serif" font-size="13" lengthAdjust="spacing" textLength="52" x="29" y="562.0903">退到后台</text><line style="stroke:#A80036;stroke-width:1.0;" x1="284" x2="326" y1="596.2891" y2="596.2891"/><line style="stroke:#A80036;stroke-width:1.0;" x1="326" x2="326" y1="596.2891" y2="609.2891"/><line style="stroke:#A80036;stroke-width:1.0;" x1="285" x2="326" y1="609.2891" y2="609.2891"/><polygon fill="#A80036" points="295,605.2891,285,609.2891,295,613.2891,291,609.2891" style="stroke:#A80036;stroke-width:1.0;"/><text fill="#000000" font-family="sans-serif" font-size="13" font-weight="bold" lengthAdjust="spacing" textLength="18" x="291" y="591.2231">15</text><text fill="#000000" font-family="sans-serif" font-size="13" lengthAdjust="spacing" textLength="45" x="313" y="591.2231">onHide</text><line style="stroke:#A80036;stroke-width:1.0;" x1="164" x2="206" y1="638.4219" y2="638.4219"/><line style="stroke:#A80036;stroke-width:1.0;" x1="206" x2="206" y1="638.4219" y2="651.4219"/><line style="stroke:#A80036;stroke-width:1.0;" x1="165" x2="206" y1="651.4219" y2="651.4219"/><polygon fill="#A80036" points="175,647.4219,165,651.4219,175,655.4219,171,651.4219" style="stroke:#A80036;stroke-width:1.0;"/><text fill="#000000" font-family="sans-serif" font-size="13" font-weight="bold" lengthAdjust="spacing" textLength="18" x="171" y="633.356">16</text><text fill="#000000" font-family="sans-serif" font-size="13" lengthAdjust="spacing" textLength="45" x="193" y="633.356">onHide</text><polygon fill="#A80036" points="142,676.5547,152,680.5547,142,684.5547,146,680.5547" style="stroke:#A80036;stroke-width:1.0;"/><line style="stroke:#A80036;stroke-width:1.0;" x1="0" x2="148" y1="680.5547" y2="680.5547"/><text fill="#000000" font-family="sans-serif" font-size="13" font-weight="bold" lengthAdjust="spacing" textLength="18" x="7" y="675.4888">17</text><text fill="#000000" font-family="sans-serif" font-size="13" lengthAdjust="spacing" textLength="113" x="29" y="675.4888">回到小程序的页面B</text><line style="stroke:#A80036;stroke-width:1.0;" x1="164" x2="206" y1="709.6875" y2="709.6875"/><line style="stroke:#A80036;stroke-width:1.0;" x1="206" x2="206" y1="709.6875" y2="722.6875"/><line style="stroke:#A80036;stroke-width:1.0;" x1="165" x2="206" y1="722.6875" y2="722.6875"/><polygon fill="#A80036" points="175,718.6875,165,722.6875,175,726.6875,171,722.6875" style="stroke:#A80036;stroke-width:1.0;"/><text fill="#000000" font-family="sans-serif" font-size="13" font-weight="bold" lengthAdjust="spacing" textLength="18" x="171" y="704.6216">18</text><text fill="#000000" font-family="sans-serif" font-size="13" lengthAdjust="spacing" textLength="50" x="193" y="704.6216">onShow</text><line style="stroke:#A80036;stroke-width:1.0;" x1="289" x2="331" y1="751.8203" y2="751.8203"/><line style="stroke:#A80036;stroke-width:1.0;" x1="331" x2="331" y1="751.8203" y2="764.8203"/><line style="stroke:#A80036;stroke-width:1.0;" x1="290" x2="331" y1="764.8203" y2="764.8203"/><polygon fill="#A80036" points="300,760.8203,290,764.8203,300,768.8203,296,764.8203" style="stroke:#A80036;stroke-width:1.0;"/><text fill="#000000" font-family="sans-serif" font-size="13" font-weight="bold" lengthAdjust="spacing" textLength="18" x="296" y="746.7544">19</text><text fill="#000000" font-family="sans-serif" font-size="13" lengthAdjust="spacing" textLength="61" x="318" y="746.7544">onUnload</text><line style="stroke:#A80036;stroke-width:1.0;" x1="391" x2="433" y1="793.9531" y2="793.9531"/><line style="stroke:#A80036;stroke-width:1.0;" x1="433" x2="433" y1="793.9531" y2="806.9531"/><line style="stroke:#A80036;stroke-width:1.0;" x1="392" x2="433" y1="806.9531" y2="806.9531"/><polygon fill="#A80036" points="402,802.9531,392,806.9531,402,810.9531,398,806.9531" style="stroke:#A80036;stroke-width:1.0;"/><text fill="#000000" font-family="sans-serif" font-size="13" font-weight="bold" lengthAdjust="spacing" textLength="18" x="398" y="788.8872">20</text><text fill="#000000" font-family="sans-serif" font-size="13" lengthAdjust="spacing" textLength="47" x="420" y="788.8872">onLoad</text><line style="stroke:#A80036;stroke-width:1.0;" x1="391" x2="433" y1="836.0859" y2="836.0859"/><line style="stroke:#A80036;stroke-width:1.0;" x1="433" x2="433" y1="836.0859" y2="849.0859"/><line style="stroke:#A80036;stroke-width:1.0;" x1="392" x2="433" y1="849.0859" y2="849.0859"/><polygon fill="#A80036" points="402,845.0859,392,849.0859,402,853.0859,398,849.0859" style="stroke:#A80036;stroke-width:1.0;"/><text fill="#000000" font-family="sans-serif" font-size="13" font-weight="bold" lengthAdjust="spacing" textLength="18" x="398" y="831.02">21</text><text fill="#000000" font-family="sans-serif" font-size="13" lengthAdjust="spacing" textLength="50" x="420" y="831.02">onShow</text><line style="stroke:#A80036;stroke-width:1.0;" x1="391" x2="433" y1="878.2188" y2="878.2188"/><line style="stroke:#A80036;stroke-width:1.0;" x1="433" x2="433" y1="878.2188" y2="891.2188"/><line style="stroke:#A80036;stroke-width:1.0;" x1="392" x2="433" y1="891.2188" y2="891.2188"/><polygon fill="#A80036" points="402,887.2188,392,891.2188,402,895.2188,398,891.2188" style="stroke:#A80036;stroke-width:1.0;"/><text fill="#000000" font-family="sans-serif" font-size="13" font-weight="bold" lengthAdjust="spacing" textLength="18" x="398" y="873.1528">22</text><text fill="#000000" font-family="sans-serif" font-size="13" lengthAdjust="spacing" textLength="55" x="420" y="873.1528">onReady</text></g></svg>