<?xml version="1.0" encoding="UTF-8" standalone="no"?><svg xmlns="http://www.w3.org/2000/svg" xmlns:xlink="http://www.w3.org/1999/xlink" contentScriptType="application/ecmascript" contentStyleType="text/css" height="738px" preserveAspectRatio="none" style="width:267px;height:738px;background:#FFFFFF;" version="1.1" viewBox="0 0 267 738" width="267px" zoomAndPan="magnify"><defs><filter height="300%" id="f17tcu5u8eoi25" width="300%" x="-1" y="-1"><feGaussianBlur result="blurOut" stdDeviation="2.0"/><feColorMatrix in="blurOut" result="blurOut2" type="matrix" values="0 0 0 0 0 0 0 0 0 0 0 0 0 0 0 0 0 0 .4 0"/><feOffset dx="4.0" dy="4.0" in="blurOut2" result="blurOut3"/><feBlend in="SourceGraphic" in2="blurOut3" mode="normal"/></filter></defs><g><rect fill="#FFFFFF" filter="url(#f17tcu5u8eoi25)" height="493.7266" style="stroke:#A80036;stroke-width:1.0;" width="10" x="27.5" y="50.2969"/><rect fill="#FFFFFF" filter="url(#f17tcu5u8eoi25)" height="195.6641" style="stroke:#A80036;stroke-width:1.0;" width="10" x="160.5" y="234.9609"/><rect fill="#FFFFFF" filter="url(#f17tcu5u8eoi25)" height="140.3984" style="stroke:#A80036;stroke-width:1.0;" width="10" x="160.5" y="546.0234"/><line style="stroke:#A80036;stroke-width:1.0;stroke-dasharray:5.0,5.0;" x1="32" x2="32" y1="40.2969" y2="695.4219"/><line style="stroke:#A80036;stroke-width:1.0;stroke-dasharray:5.0,5.0;" x1="165.5" x2="165.5" y1="40.2969" y2="695.4219"/><rect fill="#FEFECE" filter="url(#f17tcu5u8eoi25)" height="30.2969" style="stroke:#A80036;stroke-width:1.5;" width="51" x="5" y="5"/><text fill="#000000" font-family="sans-serif" font-size="14" lengthAdjust="spacing" textLength="37" x="12" y="24.9951">页面A</text><rect fill="#FEFECE" filter="url(#f17tcu5u8eoi25)" height="30.2969" style="stroke:#A80036;stroke-width:1.5;" width="51" x="5" y="694.4219"/><text fill="#000000" font-family="sans-serif" font-size="14" lengthAdjust="spacing" textLength="37" x="12" y="714.417">页面A</text><rect fill="#FEFECE" filter="url(#f17tcu5u8eoi25)" height="30.2969" style="stroke:#A80036;stroke-width:1.5;" width="52" x="137.5" y="5"/><text fill="#000000" font-family="sans-serif" font-size="14" lengthAdjust="spacing" textLength="38" x="144.5" y="24.9951">页面B</text><rect fill="#FEFECE" filter="url(#f17tcu5u8eoi25)" height="30.2969" style="stroke:#A80036;stroke-width:1.5;" width="52" x="137.5" y="694.4219"/><text fill="#000000" font-family="sans-serif" font-size="14" lengthAdjust="spacing" textLength="38" x="144.5" y="714.417">页面B</text><rect fill="#FFFFFF" filter="url(#f17tcu5u8eoi25)" height="493.7266" style="stroke:#A80036;stroke-width:1.0;" width="10" x="27.5" y="50.2969"/><rect fill="#FFFFFF" filter="url(#f17tcu5u8eoi25)" height="195.6641" style="stroke:#A80036;stroke-width:1.0;" width="10" x="160.5" y="234.9609"/><rect fill="#FFFFFF" filter="url(#f17tcu5u8eoi25)" height="140.3984" style="stroke:#A80036;stroke-width:1.0;" width="10" x="160.5" y="546.0234"/><line style="stroke:#A80036;stroke-width:1.0;" x1="37.5" x2="79.5" y1="71.4297" y2="71.4297"/><line style="stroke:#A80036;stroke-width:1.0;" x1="79.5" x2="79.5" y1="71.4297" y2="84.4297"/><line style="stroke:#A80036;stroke-width:1.0;" x1="38.5" x2="79.5" y1="84.4297" y2="84.4297"/><polygon fill="#A80036" points="48.5,80.4297,38.5,84.4297,48.5,88.4297,44.5,84.4297" style="stroke:#A80036;stroke-width:1.0;"/><text fill="#000000" font-family="sans-serif" font-size="13" font-weight="bold" lengthAdjust="spacing" textLength="9" x="44.5" y="66.3638">1</text><text fill="#000000" font-family="sans-serif" font-size="13" lengthAdjust="spacing" textLength="47" x="57.5" y="66.3638">onLoad</text><line style="stroke:#A80036;stroke-width:1.0;" x1="37.5" x2="79.5" y1="113.5625" y2="113.5625"/><line style="stroke:#A80036;stroke-width:1.0;" x1="79.5" x2="79.5" y1="113.5625" y2="126.5625"/><line style="stroke:#A80036;stroke-width:1.0;" x1="38.5" x2="79.5" y1="126.5625" y2="126.5625"/><polygon fill="#A80036" points="48.5,122.5625,38.5,126.5625,48.5,130.5625,44.5,126.5625" style="stroke:#A80036;stroke-width:1.0;"/><text fill="#000000" font-family="sans-serif" font-size="13" font-weight="bold" lengthAdjust="spacing" textLength="9" x="44.5" y="108.4966">2</text><text fill="#000000" font-family="sans-serif" font-size="13" lengthAdjust="spacing" textLength="50" x="57.5" y="108.4966">onShow</text><line style="stroke:#A80036;stroke-width:1.0;" x1="37.5" x2="79.5" y1="155.6953" y2="155.6953"/><line style="stroke:#A80036;stroke-width:1.0;" x1="79.5" x2="79.5" y1="155.6953" y2="168.6953"/><line style="stroke:#A80036;stroke-width:1.0;" x1="38.5" x2="79.5" y1="168.6953" y2="168.6953"/><polygon fill="#A80036" points="48.5,164.6953,38.5,168.6953,48.5,172.6953,44.5,168.6953" style="stroke:#A80036;stroke-width:1.0;"/><text fill="#000000" font-family="sans-serif" font-size="13" font-weight="bold" lengthAdjust="spacing" textLength="9" x="44.5" y="150.6294">3</text><text fill="#000000" font-family="sans-serif" font-size="13" lengthAdjust="spacing" textLength="55" x="57.5" y="150.6294">onReady</text><polygon fill="#A80036" points="153.5,193.8281,163.5,197.8281,153.5,201.8281,157.5,197.8281" style="stroke:#A80036;stroke-width:1.0;"/><line style="stroke:#A80036;stroke-width:1.0;" x1="37.5" x2="159.5" y1="197.8281" y2="197.8281"/><text fill="#000000" font-family="sans-serif" font-size="13" font-weight="bold" lengthAdjust="spacing" textLength="9" x="44.5" y="192.7622">4</text><text fill="#000000" font-family="sans-serif" font-size="13" lengthAdjust="spacing" textLength="70" x="57.5" y="192.7622">navigateTo</text><line style="stroke:#A80036;stroke-width:1.0;" x1="37.5" x2="84.5" y1="221.9609" y2="221.9609"/><line style="stroke:#A80036;stroke-width:1.0;" x1="84.5" x2="84.5" y1="221.9609" y2="234.9609"/><line style="stroke:#A80036;stroke-width:1.0;" x1="43.5" x2="84.5" y1="234.9609" y2="234.9609"/><polygon fill="#A80036" points="53.5,230.9609,43.5,234.9609,53.5,238.9609,49.5,234.9609" style="stroke:#A80036;stroke-width:1.0;"/><text fill="#000000" font-family="sans-serif" font-size="13" font-weight="bold" lengthAdjust="spacing" textLength="9" x="49.5" y="216.895">5</text><text fill="#000000" font-family="sans-serif" font-size="13" lengthAdjust="spacing" textLength="45" x="62.5" y="216.895">onHide</text><line style="stroke:#A80036;stroke-width:1.0;" x1="170.5" x2="212.5" y1="269.0938" y2="269.0938"/><line style="stroke:#A80036;stroke-width:1.0;" x1="212.5" x2="212.5" y1="269.0938" y2="282.0938"/><line style="stroke:#A80036;stroke-width:1.0;" x1="171.5" x2="212.5" y1="282.0938" y2="282.0938"/><polygon fill="#A80036" points="181.5,278.0938,171.5,282.0938,181.5,286.0938,177.5,282.0938" style="stroke:#A80036;stroke-width:1.0;"/><text fill="#000000" font-family="sans-serif" font-size="13" font-weight="bold" lengthAdjust="spacing" textLength="9" x="177.5" y="264.0278">6</text><text fill="#000000" font-family="sans-serif" font-size="13" lengthAdjust="spacing" textLength="47" x="190.5" y="264.0278">onLoad</text><line style="stroke:#A80036;stroke-width:1.0;" x1="170.5" x2="212.5" y1="311.2266" y2="311.2266"/><line style="stroke:#A80036;stroke-width:1.0;" x1="212.5" x2="212.5" y1="311.2266" y2="324.2266"/><line style="stroke:#A80036;stroke-width:1.0;" x1="171.5" x2="212.5" y1="324.2266" y2="324.2266"/><polygon fill="#A80036" points="181.5,320.2266,171.5,324.2266,181.5,328.2266,177.5,324.2266" style="stroke:#A80036;stroke-width:1.0;"/><text fill="#000000" font-family="sans-serif" font-size="13" font-weight="bold" lengthAdjust="spacing" textLength="9" x="177.5" y="306.1606">7</text><text fill="#000000" font-family="sans-serif" font-size="13" lengthAdjust="spacing" textLength="50" x="190.5" y="306.1606">onShow</text><line style="stroke:#A80036;stroke-width:1.0;" x1="170.5" x2="212.5" y1="353.3594" y2="353.3594"/><line style="stroke:#A80036;stroke-width:1.0;" x1="212.5" x2="212.5" y1="353.3594" y2="366.3594"/><line style="stroke:#A80036;stroke-width:1.0;" x1="171.5" x2="212.5" y1="366.3594" y2="366.3594"/><polygon fill="#A80036" points="181.5,362.3594,171.5,366.3594,181.5,370.3594,177.5,366.3594" style="stroke:#A80036;stroke-width:1.0;"/><text fill="#000000" font-family="sans-serif" font-size="13" font-weight="bold" lengthAdjust="spacing" textLength="9" x="177.5" y="348.2935">8</text><text fill="#000000" font-family="sans-serif" font-size="13" lengthAdjust="spacing" textLength="55" x="190.5" y="348.2935">onReady</text><polygon fill="#A80036" points="48.5,391.4922,38.5,395.4922,48.5,399.4922,44.5,395.4922" style="stroke:#A80036;stroke-width:1.0;"/><line style="stroke:#A80036;stroke-width:1.0;" x1="42.5" x2="159.5" y1="395.4922" y2="395.4922"/><text fill="#000000" font-family="sans-serif" font-size="13" font-weight="bold" lengthAdjust="spacing" textLength="9" x="54.5" y="390.4263">9</text><text fill="#000000" font-family="sans-serif" font-size="13" lengthAdjust="spacing" textLength="86" x="67.5" y="390.4263">navigateBack</text><line style="stroke:#A80036;stroke-width:1.0;" x1="170.5" x2="212.5" y1="429.625" y2="429.625"/><line style="stroke:#A80036;stroke-width:1.0;" x1="212.5" x2="212.5" y1="429.625" y2="442.625"/><line style="stroke:#A80036;stroke-width:1.0;" x1="165.5" x2="212.5" y1="442.625" y2="442.625"/><polygon fill="#A80036" points="175.5,438.625,165.5,442.625,175.5,446.625,171.5,442.625" style="stroke:#A80036;stroke-width:1.0;"/><text fill="#000000" font-family="sans-serif" font-size="13" font-weight="bold" lengthAdjust="spacing" textLength="18" x="177.5" y="424.5591">10</text><text fill="#000000" font-family="sans-serif" font-size="13" lengthAdjust="spacing" textLength="61" x="199.5" y="424.5591">onUnload</text><line style="stroke:#A80036;stroke-width:1.0;" x1="37.5" x2="79.5" y1="466.7578" y2="466.7578"/><line style="stroke:#A80036;stroke-width:1.0;" x1="79.5" x2="79.5" y1="466.7578" y2="479.7578"/><line style="stroke:#A80036;stroke-width:1.0;" x1="38.5" x2="79.5" y1="479.7578" y2="479.7578"/><polygon fill="#A80036" points="48.5,475.7578,38.5,479.7578,48.5,483.7578,44.5,479.7578" style="stroke:#A80036;stroke-width:1.0;"/><text fill="#000000" font-family="sans-serif" font-size="13" font-weight="bold" lengthAdjust="spacing" textLength="18" x="44.5" y="461.6919">11</text><text fill="#000000" font-family="sans-serif" font-size="13" lengthAdjust="spacing" textLength="50" x="66.5" y="461.6919">onShow</text><polygon fill="#A80036" points="153.5,504.8906,163.5,508.8906,153.5,512.8906,157.5,508.8906" style="stroke:#A80036;stroke-width:1.0;"/><line style="stroke:#A80036;stroke-width:1.0;" x1="37.5" x2="159.5" y1="508.8906" y2="508.8906"/><text fill="#000000" font-family="sans-serif" font-size="13" font-weight="bold" lengthAdjust="spacing" textLength="18" x="44.5" y="503.8247">12</text><text fill="#000000" font-family="sans-serif" font-size="13" lengthAdjust="spacing" textLength="64" x="66.5" y="503.8247">redirectTo</text><line style="stroke:#A80036;stroke-width:1.0;" x1="42.5" x2="84.5" y1="538.0234" y2="538.0234"/><line style="stroke:#A80036;stroke-width:1.0;" x1="84.5" x2="84.5" y1="538.0234" y2="551.0234"/><line style="stroke:#A80036;stroke-width:1.0;" x1="43.5" x2="84.5" y1="551.0234" y2="551.0234"/><polygon fill="#A80036" points="53.5,547.0234,43.5,551.0234,53.5,555.0234,49.5,551.0234" style="stroke:#A80036;stroke-width:1.0;"/><text fill="#000000" font-family="sans-serif" font-size="13" font-weight="bold" lengthAdjust="spacing" textLength="18" x="49.5" y="532.9575">13</text><text fill="#000000" font-family="sans-serif" font-size="13" lengthAdjust="spacing" textLength="61" x="71.5" y="532.9575">onUnload</text><line style="stroke:#A80036;stroke-width:1.0;" x1="170.5" x2="212.5" y1="580.1563" y2="580.1563"/><line style="stroke:#A80036;stroke-width:1.0;" x1="212.5" x2="212.5" y1="580.1563" y2="593.1563"/><line style="stroke:#A80036;stroke-width:1.0;" x1="171.5" x2="212.5" y1="593.1563" y2="593.1563"/><polygon fill="#A80036" points="181.5,589.1563,171.5,593.1563,181.5,597.1563,177.5,593.1563" style="stroke:#A80036;stroke-width:1.0;"/><text fill="#000000" font-family="sans-serif" font-size="13" font-weight="bold" lengthAdjust="spacing" textLength="18" x="177.5" y="575.0903">14</text><text fill="#000000" font-family="sans-serif" font-size="13" lengthAdjust="spacing" textLength="47" x="199.5" y="575.0903">onLoad</text><line style="stroke:#A80036;stroke-width:1.0;" x1="170.5" x2="212.5" y1="622.2891" y2="622.2891"/><line style="stroke:#A80036;stroke-width:1.0;" x1="212.5" x2="212.5" y1="622.2891" y2="635.2891"/><line style="stroke:#A80036;stroke-width:1.0;" x1="171.5" x2="212.5" y1="635.2891" y2="635.2891"/><polygon fill="#A80036" points="181.5,631.2891,171.5,635.2891,181.5,639.2891,177.5,635.2891" style="stroke:#A80036;stroke-width:1.0;"/><text fill="#000000" font-family="sans-serif" font-size="13" font-weight="bold" lengthAdjust="spacing" textLength="18" x="177.5" y="617.2231">15</text><text fill="#000000" font-family="sans-serif" font-size="13" lengthAdjust="spacing" textLength="50" x="199.5" y="617.2231">onShow</text><line style="stroke:#A80036;stroke-width:1.0;" x1="170.5" x2="212.5" y1="664.4219" y2="664.4219"/><line style="stroke:#A80036;stroke-width:1.0;" x1="212.5" x2="212.5" y1="664.4219" y2="677.4219"/><line style="stroke:#A80036;stroke-width:1.0;" x1="171.5" x2="212.5" y1="677.4219" y2="677.4219"/><polygon fill="#A80036" points="181.5,673.4219,171.5,677.4219,181.5,681.4219,177.5,677.4219" style="stroke:#A80036;stroke-width:1.0;"/><text fill="#000000" font-family="sans-serif" font-size="13" font-weight="bold" lengthAdjust="spacing" textLength="18" x="177.5" y="659.356">16</text><text fill="#000000" font-family="sans-serif" font-size="13" lengthAdjust="spacing" textLength="55" x="199.5" y="659.356">onReady</text></g></svg>